<?xml version="1.0" encoding="UTF-8"?>
<svg width="134px" height="163px" viewBox="0 0 134 163" version="1.1" xmlns="http://www.w3.org/2000/svg" xmlns:xlink="http://www.w3.org/1999/xlink">
    <!-- Generator: Sketch 47.1 (45422) - http://www.bohemiancoding.com/sketch -->
    <title>Artboard 2</title>
    <desc>Created with Sketch.</desc>
    <defs>
        <path d="M122,74.1480691 C122,39.2723536 97.1518036,11 66.5,11 C35.8481964,11 11,39.2723536 11,74.1480691 C11,101.098713 11,128.049356 11,155 L11,155 C11,155.552285 11.4477153,156 12,156 L121,156 L121,156 C121.552285,156 122,155.552285 122,155 C122,128.049356 122,101.098713 122,74.1480691 Z" id="path-1"></path>
    </defs>
    <g id="Logo" stroke="none" stroke-width="1" fill="none" fill-rule="evenodd">
        <g id="Artboard-2">
            <g id="Combined-Shape">
                <use fill="#000000" fill-rule="evenodd" xlink:href="#path-1"></use>
                <path stroke="#000000" stroke-width="4" d="M124,74.1480691 L124,155 C124,156.656854 122.656854,158 121,158 L12,158 C10.3431458,158 9,156.656854 9,155 L9,74.1480691 C9,38.2211145 34.6820498,9 66.5,9 C98.3179502,9 124,38.2211145 124,74.1480691 Z"></path>
            </g>
            <path d="M104.031412,73.548595 C104.031412,70.5637144 116.811145,69.3103431 116.446644,66.4440458 C112.816609,37.89887 91.7659751,16 66.3405833,16 C40.8907936,16 19.8241621,37.9409178 16.224121,66.5262386 C15.866429,69.3664116 28.4187333,69.6790336 28.4187333,72.6353895 C28.4187333,73.3696338 15,81.076609 15,81.8194308 C15,94.9044752 15.6811665,112.631866 15.6811665,143.7522 C15.6811665,145.540384 17.9050571,148.289651 22.3528384,152 L112.036625,152 L114.48721,149.18516 C116.162403,148.194869 117,147.002924 117,145.609324 C117,113.564881 117,94.4948998 117,81.1674096 C117,80.3884014 104.031412,74.3181801 104.031412,73.548595 Z" id="Combined-Shape" fill="#CECECE"></path>
            <path d="M29.0413977,74.5910698 C20.1565152,69.5461857 15.7447088,66.5945914 15.8059786,65.7362869 C16.255492,59.4392348 17.0513518,54.8553714 18.1935581,51.9846966 C19.5692928,48.5271012 24.7553814,42.0761853 33.7518236,32.6319489 C41.2377849,25.3286826 47.4140854,20.8438789 52.2807251,19.177538 C57.1473649,17.5111971 62.8525933,16.8012202 69.3964103,17.0476074 L77,51.9846966 L54.6820532,87.8094968 L45.5974114,153 L23.4805304,153 L15.5736977,143.132982 L15,82.4286062 L29.0413977,74.5910698 Z" id="Path-3" fill="#BDBDBD"></path>
            <g id="Group" transform="translate(56.000000, 74.000000)" fill="#000000">
                <circle id="Oval-3" cx="11" cy="11" r="11"></circle>
                <rect id="Rectangle" x="6" y="5" width="11" height="25" rx="2"></rect>
            </g>
            <polygon id="Path-4" fill="#B0B0B0" points="15 80 15 142.646873 18.0744904 147.603171 22.2086424 153 56 153 32.5164003 120.535203"></polygon>
            <polygon id="Path-4" fill="#989898" points="118 123 116.131801 145.005115 114.614917 148.76746 111.709061 150.878161 47 152 87.6667214 139.964003"></polygon>
            <path d="M103.024267,71.8145894 C109.392563,68.8502554 113.780387,66.7929087 116.187737,65.6425494 C111.890403,37.9826631 91.0551551,17 66,17 C41.0280038,17 20.2479496,37.8436099 15.8555984,65.3673584 C18.010574,66.4948515 22.3023361,68.6420474 28.7308845,71.8089459 L28.7308738,71.8089677 C29.2262921,72.0530258 29.4300597,72.6524899 29.1860016,73.1479082 C29.0901223,73.3425354 28.9335444,73.5006997 28.7398935,73.598536 C21.9145321,77.0468441 17.3345676,79.343703 15,80.4891127 C15,93.356732 15,110.276681 15,140.722222 C15,142.331526 17.8047823,146.31146 23.4143468,152.662025 L23.4143444,152.662027 C23.6041657,152.876923 23.877099,153 24.163826,153 L107.431542,153 L107.431542,152.999992 C107.679531,152.999992 107.918673,152.907847 108.102544,152.741445 C114.034181,147.373358 117,143.411157 117,140.854839 C117,112.774571 117,92.6226208 117,80.3989895 C114.209454,79.1059433 109.544033,76.8455987 103.003738,73.6179556 L103.003725,73.6179814 C102.508451,73.3735634 102.305093,72.773925 102.549511,72.2786515 C102.650302,72.0744155 102.817788,71.9107019 103.024267,71.8145894 Z" id="Combined-Shape" stroke="#000000" stroke-width="4"></path>
            <rect id="Rectangle-2" fill="#000000" x="112" y="146" width="8" height="7"></rect>
        </g>
    </g>
</svg>