<?xml version="1.0" encoding="UTF-8"?>
<svg width="134px" height="158px" viewBox="0 0 134 158" version="1.1" xmlns="http://www.w3.org/2000/svg" xmlns:xlink="http://www.w3.org/1999/xlink">
    <!-- Generator: Sketch 47.1 (45422) - http://www.bohemiancoding.com/sketch -->
    <title>Artboard 2</title>
    <desc>Created with Sketch.</desc>
    <defs></defs>
    <g id="Logo" stroke="none" stroke-width="1" fill="none" fill-rule="evenodd">
        <g id="Artboard-2">
            <path d="M127,71.2770612 L127,151 C127,152.656854 125.656854,154 124,154 L8,154 C6.34314575,154 5,152.656854 5,151 L5,71.2770612 C5,35.8012734 32.2857309,7 66,7 C99.7142691,7 127,35.8012734 127,71.2770612 Z" id="Combined-Shape" stroke="#000000" stroke-width="4"></path>
            <path d="M104.031412,73.548595 C104.031412,70.5637144 116.811145,69.3103431 116.446644,66.4440458 C112.816609,37.89887 91.7659751,16 66.3405833,16 C40.8907936,16 19.8241621,37.9409178 16.224121,66.5262386 C15.866429,69.3664116 28.4187333,69.6790336 28.4187333,72.6353895 C28.4187333,73.3696338 15,81.076609 15,81.8194308 C15,94.9044752 15.6811665,112.631866 15.6811665,143.7522 C15.6811665,145.540384 17.9050571,148.289651 22.3528384,152 L112.036625,152 L114.48721,149.18516 C116.162403,148.194869 117,147.002924 117,145.609324 C117,113.564881 117,94.4948998 117,81.1674096 C117,80.3884014 104.031412,74.3181801 104.031412,73.548595 Z" id="Combined-Shape" fill="#CECECE"></path>
            <path d="M29.0413977,74.5910698 C20.1565152,69.5461857 15.7447088,66.5945914 15.8059786,65.7362869 C16.255492,59.4392348 17.0513518,54.8553714 18.1935581,51.9846966 C19.5692928,48.5271012 24.7553814,42.0761853 33.7518236,32.6319489 C41.2377849,25.3286826 47.4140854,20.8438789 52.2807251,19.177538 C57.1473649,17.5111971 62.8525933,16.8012202 69.3964103,17.0476074 L77,51.9846966 L54.6820532,87.8094968 L45.5974114,153 L23.4805304,153 L15.5736977,143.132982 L15,82.4286062 L29.0413977,74.5910698 Z" id="Path-3" fill="#BDBDBD"></path>
            <g id="Group" transform="translate(55.000000, 74.000000)" fill="#000000">
                <circle id="Oval-3" cx="11.5" cy="11.5" r="11.5"></circle>
                <rect id="Rectangle" x="6" y="6" width="11" height="26" rx="2"></rect>
            </g>
            <polygon id="Path-4" fill="#B0B0B0" points="15 80 15 142.646873 18.0744904 147.603171 22.2086424 153 56 153 32.5164003 120.535203"></polygon>
            <polygon id="Path-4" fill="#989898" points="118 123 118 143.081295 114.882899 149.058617 111.687946 152 47 152 87.6667214 139.964003"></polygon>
            <path d="M103.00799,72.22527 C109.385088,69.2350383 113.778336,67.16002 116.187737,66.0002152 C111.890403,38.1369474 91.0551551,17 66,17 C41.0280038,17 20.2479496,37.9968717 15.8555984,65.7230007 C18.0123239,66.8597065 22.3093076,69.0252818 28.7465495,72.2197266 L28.7465464,72.2197327 C29.2412625,72.4652327 29.443292,73.0652965 29.197792,73.5600126 C29.1022376,73.7525678 28.9471783,73.9092065 28.7556014,74.0067073 C21.9215586,77.4848153 17.3363581,79.8012277 15,80.9559445 C15,93.9181786 15,110.962539 15,141.631944 C15,143.253061 17.8047126,147.26218 23.4141378,153.659301 L23.4141392,153.6593 C23.6040131,153.875837 23.8780249,154 24.1660183,154 L107.380339,154 L107.380339,154.000027 C107.65836,154.000027 107.923831,153.884288 108.113043,153.680586 C114.099416,147.235787 117.061735,143.264103 117,141.765537 C117,113.478795 117,93.1786694 117,80.8651586 C114.207127,79.5615186 109.536252,77.2818423 102.987375,74.0261295 L102.987372,74.0261337 C102.492827,73.7802752 102.291227,73.1800595 102.537085,72.6855143 C102.637595,72.4833379 102.803566,72.321125 103.00799,72.22527 Z" id="Combined-Shape" stroke="#000000" stroke-width="4"></path>
        </g>
    </g>
</svg>