<?xml version="1.0" encoding="UTF-8"?>
<svg width="193px" height="48px" viewBox="0 0 193 48" version="1.1" xmlns="http://www.w3.org/2000/svg" xmlns:xlink="http://www.w3.org/1999/xlink">
    <!-- Generator: Sketch 47.1 (45422) - http://www.bohemiancoding.com/sketch -->
    <title>btn_google_signin_light_normal_web</title>
    <desc>Created with Sketch.</desc>
    <defs>
        <rect id="path-1" x="0" y="0" width="185" height="40" rx="2"></rect>
        <filter x="-1.6%" y="-5.0%" width="103.2%" height="115.0%" filterUnits="objectBoundingBox" id="filter-2">
            <feOffset dx="0" dy="1" in="SourceAlpha" result="shadowOffsetOuter1"></feOffset>
            <feGaussianBlur stdDeviation="0.5" in="shadowOffsetOuter1" result="shadowBlurOuter1"></feGaussianBlur>
            <feColorMatrix values="0 0 0 0 0   0 0 0 0 0   0 0 0 0 0  0 0 0 0.24 0" type="matrix" in="shadowBlurOuter1" result="shadowMatrixOuter1"></feColorMatrix>
            <feOffset dx="0" dy="0" in="SourceAlpha" result="shadowOffsetOuter2"></feOffset>
            <feGaussianBlur stdDeviation="0.5" in="shadowOffsetOuter2" result="shadowBlurOuter2"></feGaussianBlur>
            <feColorMatrix values="0 0 0 0 0   0 0 0 0 0   0 0 0 0 0  0 0 0 0.12 0" type="matrix" in="shadowBlurOuter2" result="shadowMatrixOuter2"></feColorMatrix>
            <feMerge>
                <feMergeNode in="shadowMatrixOuter1"></feMergeNode>
                <feMergeNode in="shadowMatrixOuter2"></feMergeNode>
            </feMerge>
        </filter>
    </defs>
    <g id="Page-3" stroke="none" stroke-width="1" fill="none" fill-rule="evenodd">
        <g id="btn_google_signin_light_normal_web">
            <g id="Group-4" transform="translate(4.000000, 4.000000)">
                <g id="button">
                    <g id="button-bg">
                        <use fill="black" fill-opacity="1" filter="url(#filter-2)" xlink:href="#path-1"></use>
                        <use fill="#272727" fill-rule="evenodd" xlink:href="#path-1"></use>
                    </g>
                </g>
                <text id="Sign-in-with-Github" font-family="Roboto-Medium, Roboto" font-size="14" font-weight="400" letter-spacing="0.21875" fill="#FFFFFF">
                    <tspan x="50" y="25">Sign in with Github</tspan>
                </text>
                <path d="M20.2886031,10 C14.9105789,10 10.5490815,14.3608995 10.5490815,19.7407175 C10.5490815,24.0442131 13.3397462,27.6947398 17.2103211,28.9827389 C17.6976559,29.0724324 17.8752491,28.7716601 17.8752491,28.5133427 C17.8752491,28.2825314 17.8668777,27.6696256 17.8620941,26.8570022 C15.1527515,27.4453918 14.5811047,25.5510644 14.5811047,25.5510644 C14.1380187,24.4257096 13.4994007,24.1261332 13.4994007,24.1261332 C12.6150225,23.5221967 13.5663719,23.5341559 13.5663719,23.5341559 C14.5440314,23.6029209 15.0582743,24.5381255 15.0582743,24.5381255 C15.9271056,26.0264401 17.3382839,25.5965091 17.8931878,25.3471611 C17.9816854,24.7181105 18.2334253,24.2887774 18.5114752,24.045409 C16.3486652,23.7996487 14.0746352,22.963705 14.0746352,19.2312582 C14.0746352,18.1680909 14.4543379,17.2980636 15.0774089,16.6175887 C14.9769522,16.3712305 14.6426943,15.3804159 15.173082,14.0397966 C15.173082,14.0397966 15.9904891,13.7778915 17.8513308,15.0383846 C18.6280768,14.8219242 19.4616287,14.714292 20.289799,14.7101063 C21.1173713,14.714292 21.9503252,14.8219242 22.7282671,15.0383846 C24.587913,13.7778915 25.4041241,14.0397966 25.4041241,14.0397966 C25.9357078,15.3804159 25.6014499,16.3712305 25.5015911,16.6175887 C26.1258581,17.2980636 26.5025709,18.1680909 26.5025709,19.2312582 C26.5025709,22.9732723 24.2249532,23.7966589 22.0555656,24.0376356 C22.4047724,24.3384079 22.716308,24.932777 22.716308,25.8416714 C22.716308,27.1434236 22.7043488,28.1940338 22.7043488,28.5133427 C22.7043488,28.7740519 22.8801482,29.0772161 23.3740605,28.9821409 C27.2416456,27.691152 30.0299185,24.0430172 30.0299185,19.7407175 C30.0299185,14.3608995 25.6684211,10 20.2886031,10" id="Fill-3" fill="#FFFFFF"></path>
            </g>
        </g>
    </g>
</svg>